<?xml version="1.0" standalone="no"?>
<!DOCTYPE svg PUBLIC "-//W3C//DTD SVG 20010904//EN"
 "http://www.w3.org/TR/2001/REC-SVG-20010904/DTD/svg10.dtd">
<svg version="1.0" xmlns="http://www.w3.org/2000/svg"
 width="512.000000pt" height="512.000000pt" viewBox="0 0 512.000000 512.000000"
 preserveAspectRatio="xMidYMid meet">

<g transform="translate(0.000000,512.000000) scale(0.100000,-0.100000)"
fill="#4e8ec3" stroke="none">
<path d="M1747 4245 c-84 -176 -283 -1499 -412 -2744 -14 -134 -25 -250 -25
-258 0 -13 -12 -14 -77 -8 -261 24 -393 137 -393 335 1 120 43 189 169 277 87
61 121 93 121 114 0 10 -12 27 -27 39 -61 48 -210 -2 -324 -107 -106 -99 -151
-203 -152 -353 -3 -318 210 -517 583 -546 47 -3 103 -12 125 -19 113 -37 553
-55 1325 -55 864 0 1398 24 1438 65 56 56 -255 2297 -424 3059 -44 197 -58
236 -88 236 -54 0 -157 -143 -293 -405 l-86 -167 -36 5 c-20 3 -85 13 -146 23
-155 25 -499 25 -640 -1 -164 -30 -150 -35 -213 75 -135 236 -274 420 -343
456 -44 22 -64 18 -82 -21z m460 -1163 c43 -30 66 -85 60 -138 -9 -84 -80
-141 -163 -131 -192 21 -166 310 27 294 26 -2 60 -13 76 -25z m1230 0 c43 -30
66 -85 60 -138 -9 -84 -80 -141 -163 -131 -192 21 -166 310 27 294 26 -2 60
-13 76 -25z m-696 -446 c28 -35 70 -49 113 -38 42 12 60 -3 31 -25 -30 -21
-98 -16 -137 10 l-34 24 -30 -23 c-46 -38 -154 -31 -154 9 0 5 19 6 44 3 50
-8 89 6 111 41 19 29 32 29 56 -1z"/>
</g>
</svg>
