<?xml version="1.0" encoding="UTF-8" standalone="no"?>
<svg
   version="1.0"
   width="512.000000pt"
   height="512.000000pt"
   viewBox="0 0 512.000000 512.000000"
   preserveAspectRatio="xMidYMid meet"
   id="svg1"
   sodipodi:docname="logo.svg"
   inkscape:version="1.3 (0e150ed, 2023-07-21)"
   xmlns:inkscape="http://www.inkscape.org/namespaces/inkscape"
   xmlns:sodipodi="http://sodipodi.sourceforge.net/DTD/sodipodi-0.dtd"
   xmlns="http://www.w3.org/2000/svg"
   xmlns:svg="http://www.w3.org/2000/svg">
  <defs
     id="defs1">
    <linearGradient
       id="swatch6"
       inkscape:swatch="solid">
      <stop
         style="stop-color:#000000;stop-opacity:1;"
         offset="0"
         id="stop6" />
    </linearGradient>
  </defs>
  <sodipodi:namedview
     id="namedview1"
     pagecolor="#ffffff"
     bordercolor="#000000"
     borderopacity="0.25"
     inkscape:showpageshadow="2"
     inkscape:pageopacity="0.0"
     inkscape:pagecheckerboard="0"
     inkscape:deskcolor="#d1d1d1"
     inkscape:document-units="pt"
     inkscape:zoom="2.1176134"
     inkscape:cx="385.10335"
     inkscape:cy="311.67162"
     inkscape:window-width="1328"
     inkscape:window-height="633"
     inkscape:window-x="132"
     inkscape:window-y="275"
     inkscape:window-maximized="0"
     inkscape:current-layer="svg1" />
  <g
     transform="translate(0.000000,512.000000) scale(0.100000,-0.100000)"
     fill="#4e8ec3"
     stroke="none"
     id="g1">
    <path
       d="M1747 4245 c-84 -176 -283 -1499 -412 -2744 -14 -134 -25 -250 -25 -258 0 -13 -12 -14 -77 -8 -261 24 -393 137 -393 335 1 120 43 189 169 277 87 61 121 93 121 114 0 10 -12 27 -27 39 -61 48 -210 -2 -324 -107 -106 -99 -151 -203 -152 -353 -3 -318 210 -517 583 -546 47 -3 103 -12 125 -19 113 -37 553 -55 1325 -55 864 0 1398 24 1438 65 56 56 -255 2297 -424 3059 -44 197 -58 236 -88 236 -54 0 -157 -143 -293 -405 l-86 -167 -36 5 c-20 3 -85 13 -146 23 -155 25 -499 25 -640 -1 -164 -30 -150 -35 -213 75 -135 236 -274 420 -343 456 -44 22 -64 18 -82 -21z m460 -1163 c43 -30 66 -85 60 -138 -9 -84 -80 -141 -163 -131 -192 21 -166 310 27 294 26 -2 60 -13 76 -25z m1230 0 c43 -30 66 -85 60 -138 -9 -84 -80 -141 -163 -131 -192 21 -166 310 27 294 26 -2 60 -13 76 -25z m-696 -446 c28 -35 70 -49 113 -38 42 12 60 -3 31 -25 -30 -21 -98 -16 -137 10 l-34 24 -30 -23 c-46 -38 -154 -31 -154 9 0 5 19 6 44 3 50 -8 89 6 111 41 19 29 32 29 56 -1z"
       id="path1" />
  </g>
  <path
     style="stroke-width:0;stroke-dasharray:none;stroke:none;fill:#ffffff;fill-opacity:1"
     d="m 279.32754,307.28225 c -7.45032,-1.24715 -13.55602,-6.67461 -15.40225,-13.69132 -0.69085,-2.62562 -0.77168,-7.86414 -0.16045,-10.3995 1.10509,-4.58398 3.8711,-8.785 7.42595,-11.27859 3.04759,-2.13776 5.76728,-3.03396 9.89863,-3.26181 7.81371,-0.43093 14.03342,2.54749 17.97602,8.60814 4.99985,7.6859 3.68152,18.83685 -2.96574,25.08533 -4.22253,3.96922 -10.86894,5.92593 -16.77216,4.93775 z"
     id="path4"
     transform="scale(0.75)" />
  <path
     style="fill:#ffffff;stroke-width:0;stroke-dasharray:none;stroke:none;fill-opacity:1"
     d="m 442.01523,306.97765 c -6.84541,-1.48741 -12.55007,-7.06333 -14.23704,-13.91573 -0.70049,-2.84535 -0.61389,-7.87262 0.18224,-10.57918 3.1158,-10.59269 12.78879,-15.99102 23.66786,-13.20862 3.76953,0.96408 5.91059,2.02872 8.17595,4.06547 8.1068,7.28871 8.40931,20.83102 0.63891,28.60142 -4.73288,4.73288 -11.41753,6.5599 -18.42792,5.03664 z"
     id="path5"
     transform="scale(0.75)" />
  <path
     style="fill:#ffffff;stroke-width:0;stroke:none;stroke-opacity:1;stroke-dasharray:none;fill-opacity:1"
     d="m 342.93024,340.95595 c -3.13402,-0.67018 -5.66299,-2.52673 -5.22357,-3.83468 0.10809,-0.32172 1.97407,-0.44342 6.79847,-0.44342 6.29431,0 6.74655,-0.0481 8.46673,-0.90149 1.93308,-0.95894 3.50813,-2.38479 6.09134,-5.51431 0.96699,-1.1715 1.89531,-1.93619 2.35049,-1.93619 0.4396,0 2.12102,1.31672 4.04514,3.16774 5.24949,5.05007 8.91211,6.18307 15.65954,4.84416 3.4903,-0.69259 5.11459,-0.42116 5.11459,0.8547 0,0.79566 -1.84589,2.50953 -3.31987,3.08244 -1.92122,0.74673 -5.37945,1.01297 -8.1508,0.62751 -3.76248,-0.52331 -6.25713,-1.52625 -9.75534,-3.92202 -1.6295,-1.11598 -3.15786,-1.94909 -3.39634,-1.85136 -0.23849,0.0977 -1.67937,1.11659 -3.20196,2.26416 -1.83706,1.38458 -3.58528,2.34118 -5.19679,2.84361 -2.73206,0.85179 -7.95347,1.217 -10.28163,0.71915 z"
     id="path6"
     transform="scale(0.75)" />
</svg>
